<svg width="171" height="43" viewBox="0 0 171 43" fill="none" xmlns="http://www.w3.org/2000/svg">
<path d="M112 25V22.6467L110.898 22.6495L110.893 21.9576H110.304L110.303 20.0116L82.6803 20.0012L82.6806 22.5335H81.2564L81.2583 20.0016L80.161 20L80.1647 22.5335H78.8173L78.8357 20.0023L77.3856 20.0029L77.3597 22.5335H75.3661V20.0087H72.0283L72 23.0551H74.0373V24.9912L101.737 24.9875L101.714 22.5953H103.209L103.222 24.9645L104.683 24.9697L104.653 22.5953H106.127L106.125 24.9893L107.631 24.9916L107.62 22.5953H109.417L109.428 25H112Z" fill="#D0CABE" stroke="black" stroke-width="0.6"/>
<path d="M91.6035 1H93.4326C95.7774 6.07771 94.9528 10.4197 94.3732 15H90.8892C89.4511 9.42777 89.8057 4.947 91.6034 1H91.6035Z" fill="#D6C8AD" stroke="black" stroke-width="0.6"/>
<path d="M93.9939 15L94 15.9852L91.0069 16L91 15H93.9946" fill="#E6E6E6"/>
<path d="M93.9939 15L94 15.9852L91.0069 16L91 15H93.9946" stroke="black" stroke-width="0.6"/>
<path d="M93.5067 16V27.5539C94.4378 28.1236 94.3286 28.6848 93.5067 29.2403C93.9998 29.6295 94.7036 29.9539 93.5067 30.8211V37.6542H96V38.9744H93.9646V40.532H95.9635V42H89.0513V40.532H90.9922V38.9744H89.0134L89 37.6542H91.5279L91.5321 30.8512C90.3527 30.2298 90.7344 29.7047 91.533 29.2251C90.3138 28.5516 90.7836 28.0463 91.5341 27.569L91.5413 16.0091L93.5067 16Z" fill="#C4BCAE" stroke="black" stroke-width="0.6"/>
<path d="M80 8.16323L78.7813 7C78.0701 7.59193 77.5174 8.2103 77 8.83461L78.1832 10" fill="#D6C8AD"/>
<path d="M80 8.16323L78.7813 7C78.0701 7.59193 77.5174 8.2103 77 8.83461L78.1832 10" stroke="black" stroke-width="0.6"/>
<path d="M81 12.0003L105.56 39C106.437 38.1691 107.254 37.2607 108 36.2617L82.8118 10L81 12.0003Z" fill="#D6C8AD"/>
<path d="M81 12.0003L105.56 39C106.437 38.1691 107.254 37.2607 108 36.2617L82.8118 10L81 12.0003Z" stroke="black" stroke-width="0.6"/>
<path d="M82.5751 10.3792L87 5.39214L84.6042 3L80.1159 7.84683L78.3437 9.76053L77.6522 10.5074L74.2437 15.7332C73.5844 16.744 74.37 17.4279 75.3237 16.69L80.3183 12.8259L80.7292 12.404L82.5751 10.3792Z" fill="#D0CABE" stroke="black" stroke-width="0.6"/>
<path d="M78 37.4425C78.3916 38.045 78.8051 38.5081 79.5624 39C83.9571 38.0882 85.3009 34.4235 87 30.8227L85.2603 29C80.362 30.9163 78.2187 33.6903 78 37.4425Z" fill="#D6C8AD" stroke="black" stroke-width="0.6"/>
<path d="M102.366 16.8917C101.56 17.1517 100.596 16.9474 99.978 16.2368C99.3704 15.5381 98.2897 14.2699 98.2897 14.2699C98.2897 14.2699 97.3831 13.2742 97.1964 12.6039C96.9776 11.8179 96.8775 10.9737 97.242 10.1185C97.2544 10.079 97.2674 10.0394 97.2808 10C101.289 10.4214 102.767 12.956 103 16.5309C102.792 16.6708 102.581 16.7913 102.366 16.8917Z" fill="#D6C8AD" stroke="black" stroke-width="0.6"/>
<path d="M99.2852 13.008L85 28.1463L86.8535 30L101 14.4007C100.974 13.6562 100.431 12.9174 99.2854 13.0075L99.2852 13.008Z" fill="#D6C8AD" stroke="black" stroke-width="0.6"/>
<path d="M103.1 16C106.266 14.2066 108.277 9.22622 106.067 6.93556C103.805 4.59121 98.2635 7.02352 97 10.1437L97.0433 10.1443C101.266 10.5144 102.865 12.808 103.1 16Z" fill="#D6C8AD" stroke="black" stroke-width="0.6"/>
<path d="M131.967 15.0767C131.967 14.5406 131.906 14.1803 131.784 13.996C131.677 13.8117 131.456 13.7196 131.121 13.7196C130.968 13.7196 130.816 13.7279 130.663 13.7447C130.511 13.7615 130.404 13.7698 130.343 13.7698L130.297 13.6693L130.457 12.5635C130.64 12.5803 130.984 12.597 131.487 12.6138C131.99 12.6305 132.493 12.6389 132.996 12.6389C133.408 12.6389 133.873 12.6138 134.392 12.5635C134.925 12.4965 135.276 12.4462 135.444 12.4127L135.352 13.5437C134.788 13.6442 134.399 13.8033 134.186 14.0212C133.972 14.2222 133.858 14.5657 133.843 15.0516L133.568 25.8333C133.553 26.5036 133.614 26.956 133.751 27.1905C133.888 27.425 134.163 27.5423 134.575 27.5423C134.803 27.5423 135.017 27.534 135.215 27.5172C135.413 27.5004 135.543 27.4837 135.604 27.4669L135.65 27.5675L135.444 28.7235C135.246 28.7067 134.872 28.6901 134.323 28.6733C133.774 28.6565 133.21 28.6481 132.63 28.6481L130 28.6733L130.229 27.5423C130.717 27.4921 131.075 27.4083 131.304 27.291C131.548 27.1737 131.715 26.9894 131.807 26.7381C131.898 26.4868 131.944 26.1181 131.944 25.6323L131.967 15.0767ZM138.349 15.705C138.821 15.1856 139.058 14.75 139.058 14.3981C139.058 13.9625 138.577 13.7112 137.617 13.6442L137.571 13.5437L137.731 12.463C137.914 12.4797 138.288 12.5132 138.852 12.5635C139.431 12.6138 139.896 12.6389 140.247 12.6389C140.613 12.6389 141.018 12.6305 141.459 12.6138C141.917 12.5803 142.214 12.5551 142.351 12.5384L142.443 12.7143L142.283 13.7447C141.887 13.8285 141.521 14.0044 141.185 14.2725C140.849 14.5406 140.339 15.0684 139.652 15.8558L135.97 20.1032L139.813 25.6071C140.362 26.3946 140.849 26.9475 141.276 27.2659C141.718 27.5843 142.207 27.7434 142.74 27.7434L142.832 27.8439L142.695 28.6984C142.527 28.7319 142.191 28.7906 141.688 28.8743C141.201 28.9581 140.903 29 140.796 29C140.43 29 140.026 28.8157 139.584 28.4471C139.142 28.0618 138.692 27.5255 138.234 26.8386L134.232 20.7315L134.254 20.3796L138.349 15.705ZM147.628 28.9497C146.759 28.9497 145.988 28.7152 145.318 28.246C144.646 27.7768 144.12 27.1234 143.74 26.2857C143.374 25.4312 143.191 24.4594 143.191 23.3704C143.191 22.1975 143.419 21.1253 143.875 20.1534C144.349 19.165 144.989 18.3942 145.798 17.8413C146.606 17.2716 147.505 16.9868 148.497 16.9868C149.351 16.9868 150.113 17.2213 150.784 17.6905C151.471 18.1597 151.997 18.8214 152.363 19.6759C152.743 20.5136 152.935 21.4771 152.935 22.5661C152.935 23.739 152.697 24.8197 152.225 25.8082C151.768 26.78 151.135 27.5507 150.327 28.1204C149.518 28.6733 148.619 28.9497 147.628 28.9497ZM148.268 27.7183C149.122 27.7183 149.801 27.3413 150.304 26.5873C150.807 25.8165 151.059 24.7778 151.059 23.4709C151.059 22.4824 150.922 21.6028 150.647 20.832C150.373 20.0446 149.984 19.4329 149.481 18.9974C148.992 18.5618 148.436 18.3439 147.811 18.3439C146.956 18.3439 146.278 18.7292 145.775 19.5C145.272 20.2708 145.02 21.3178 145.02 22.6415C145.02 23.63 145.158 24.5096 145.432 25.2804C145.707 26.0512 146.087 26.6544 146.576 27.0899C147.063 27.5089 147.628 27.7183 148.268 27.7183ZM157.898 17.3638H162.473L163.754 17.3135L163.868 17.5145L163.662 18.6455L162.816 18.5952H157.875C157.875 19.4497 157.861 20.7147 157.829 22.3902C157.799 24.0657 157.784 25.3307 157.784 26.1852C157.784 26.6041 157.868 26.9392 158.035 27.1905C158.204 27.4418 158.463 27.5675 158.813 27.5675C159.24 27.5675 159.583 27.5591 159.842 27.5423C160.102 27.5255 160.27 27.5172 160.345 27.5172L160.391 27.6177L160.231 28.7487C160.171 28.7487 159.934 28.7319 159.522 28.6984C159.126 28.6816 158.73 28.6733 158.333 28.6733L157.372 28.6481C156.731 28.6481 156.175 28.6565 155.702 28.6733C155.245 28.6901 154.947 28.6984 154.81 28.6984L154.925 27.7183C155.352 27.6848 155.656 27.5926 155.839 27.4418C156.022 27.2742 156.13 27.0565 156.16 26.7884C156.205 26.5202 156.228 26.0763 156.228 25.4563V19.5503C156.214 19.1313 156.1 18.8549 155.885 18.7209C155.672 18.5869 155.306 18.503 154.787 18.4696L154.696 18.3188L154.856 17.4643L156.228 17.1878C156.228 15.7134 156.488 14.4568 157.006 13.418C157.525 12.3792 158.204 11.6001 159.042 11.0807C159.897 10.5613 160.819 10.3016 161.809 10.3016C162.435 10.3016 163.014 10.3937 163.548 10.578C164.097 10.7623 164.554 10.9634 164.92 11.1812C165.286 11.399 165.469 11.5163 165.469 11.5331L165.515 11.7593C165.455 11.8263 165.332 12.0022 165.149 12.287C164.966 12.5551 164.776 12.8651 164.577 13.2169L164.325 13.2923C164.325 13.2588 164.158 13.1164 163.822 12.8651C163.502 12.597 163.099 12.3541 162.61 12.1362C162.122 11.9017 161.603 11.7844 161.054 11.7844C159.972 11.7844 159.187 12.1614 158.699 12.9153C158.211 13.6693 157.952 14.7417 157.921 16.1323L157.898 17.3638ZM163.086 17.1878V17.0873C163.086 15.6464 163.299 14.3898 163.726 13.3175C164.168 12.2451 164.779 11.4242 165.556 10.8545C166.35 10.2848 167.279 10 168.347 10C168.804 10 169.223 10.0335 169.605 10.1005C170.001 10.1676 170.307 10.243 170.52 10.3267C170.748 10.3937 170.893 10.444 170.954 10.4775L171 10.7037C170.954 10.7875 170.856 10.9885 170.703 11.3069C170.565 11.6085 170.428 11.9519 170.291 12.3373L170.039 12.4127C169.978 12.3624 169.826 12.2619 169.582 12.1111C169.353 11.9603 169.04 11.8179 168.644 11.6839C168.262 11.5498 167.851 11.4828 167.409 11.4828C166.54 11.4828 165.892 11.8682 165.465 12.6389C165.037 13.3929 164.809 14.5573 164.779 16.1323L164.756 17.3638C165.549 17.3638 166.227 17.3554 166.791 17.3386C167.356 17.3218 167.729 17.3052 167.912 17.2884L167.981 17.3638L167.752 18.6958C167.585 18.679 167.226 18.6623 166.677 18.6455C166.144 18.6287 165.495 18.6204 164.733 18.6204L164.641 26.1852C164.641 26.6544 164.733 27.0062 164.916 27.2407C165.114 27.4586 165.412 27.5675 165.808 27.5675C166.174 27.5675 166.471 27.5591 166.7 27.5423C166.944 27.5255 167.104 27.5172 167.18 27.5172L167.226 27.6177L167.066 28.6984C166.853 28.6984 166.464 28.6901 165.899 28.6733C165.335 28.6565 164.779 28.6481 164.23 28.6481C163.696 28.6481 163.17 28.6565 162.651 28.6733C162.148 28.7067 161.821 28.7319 161.668 28.7487L161.782 27.7685C162.651 27.6345 163.086 27.1402 163.086 26.2857V19.5C163.07 19.0979 162.964 18.8382 162.766 18.7209C162.583 18.5869 162.21 18.503 161.645 18.4696L161.553 18.3188L161.714 17.4643L163.086 17.1878Z" fill="white"/>
<path d="M12.4304 21.8109C12.1602 22.053 11.9725 22.4402 11.8674 22.9728C11.7773 23.4891 11.7323 24.3445 11.7323 25.5386C11.7323 26.4746 11.7848 27.1846 11.8899 27.6687L11.7548 27.8865C11.7548 27.9027 11.4846 28.0156 10.9441 28.2254C10.4187 28.4191 9.76567 28.5965 8.98501 28.7579C8.21937 28.9194 7.41619 29 6.5755 29C5.25439 29 4.09843 28.6933 3.1076 28.0802C2.11677 27.467 1.35113 26.6036 0.810678 25.4902C0.270226 24.3605 0 23.0374 0 21.5204C0 19.8582 0.330277 18.3817 0.990828 17.0908C1.65138 15.7998 2.58216 14.7993 3.78316 14.0893C4.98416 13.3631 6.35781 13 7.90411 13C8.45958 13 9.06007 13.0484 9.70561 13.1452C10.3512 13.2259 10.9066 13.3147 11.372 13.4115C11.8374 13.4922 12.1376 13.5487 12.2728 13.5809L12.3628 13.7262C12.3328 13.823 12.2803 14.057 12.2052 14.4281C12.1301 14.7993 12.0476 15.2834 11.9575 15.8805C11.8824 16.4776 11.8224 17.107 11.7773 17.7685L10.719 17.8654C10.734 17.7847 10.749 17.6313 10.764 17.4054C10.779 17.1634 10.7865 16.8809 10.7865 16.5582C10.7865 15.8159 10.5163 15.2753 9.97584 14.9365C9.4504 14.5976 8.58717 14.4281 7.38617 14.4281C5.67474 14.4281 4.33863 14.9849 3.37782 16.0983C2.43203 17.1956 1.95914 18.7448 1.95914 20.7458C1.95914 22.1498 2.16931 23.3843 2.58966 24.4493C3.01002 25.5144 3.61051 26.3374 4.39117 26.9183C5.17183 27.4992 6.07258 27.7897 7.09343 27.7897C7.63388 27.7897 8.1293 27.7251 8.57967 27.5961C9.03005 27.4508 9.40537 27.2976 9.70561 27.1362C10.0209 26.9747 10.1785 26.8861 10.1785 26.8699V23.9168C10.1785 23.3681 10.0959 23.0132 9.9308 22.8517C9.78067 22.6903 9.4504 22.6097 8.93997 22.6097H7.38617L7.34114 22.5129L7.54381 21.3026C7.72396 21.3188 8.10678 21.343 8.69227 21.3752C9.27776 21.3914 9.84823 21.3994 10.4037 21.3994C10.809 21.3994 11.2069 21.3832 11.5972 21.351C11.9875 21.3188 12.2352 21.2946 12.3403 21.2784L12.4304 21.8109ZM15.008 27.8381C15.4583 27.7897 15.7585 27.6365 15.9087 27.3782C16.0587 27.1039 16.1339 26.5874 16.1339 25.829V20.5038C16.1339 19.9713 16.0663 19.592 15.9312 19.3661C15.7961 19.1402 15.5784 19.0272 15.2782 19.0272C15.158 19.0272 15.053 19.0353 14.9629 19.0514C14.8878 19.0676 14.8353 19.0837 14.8053 19.0998L14.6927 18.9304L14.7602 18.18C15.3307 18.067 15.9312 17.93 16.5618 17.7685C17.2072 17.6071 17.6201 17.5023 17.8003 17.4539L17.9579 17.5991C17.9278 17.7443 17.8828 18.0832 17.8228 18.6157C17.7627 19.1321 17.7402 19.6244 17.7552 20.0923L17.8453 20.1649C18.2957 19.4065 18.8211 18.7852 19.4216 18.3011C20.0371 17.8169 20.5701 17.5749 21.0205 17.5749C21.2306 17.5749 21.3882 17.5911 21.4934 17.6233C21.6134 17.6395 21.6884 17.6555 21.7186 17.6717L21.7861 17.7685C21.756 17.9944 21.6884 18.4785 21.5834 19.2209C21.4934 19.947 21.4407 20.6168 21.4258 21.23L20.5476 21.3026C20.5476 20.641 20.5025 20.2053 20.4125 19.9955C20.3373 19.7696 20.1797 19.6566 19.9396 19.6566C19.6093 19.6566 19.2564 19.8098 18.8812 20.1165C18.5058 20.407 18.1606 20.8023 17.8453 21.3026C17.8303 21.7705 17.8003 22.5451 17.7552 23.6263C17.7102 24.7076 17.6801 25.579 17.6652 26.2405C17.6652 26.7893 17.7402 27.1604 17.8904 27.354C18.0404 27.5477 18.3257 27.6445 18.7461 27.6445C18.9411 27.6445 19.1364 27.6365 19.3316 27.6203C19.5266 27.6041 19.6617 27.5961 19.7369 27.5961L19.7594 27.6929L19.5568 28.7579C19.4066 28.7579 19.1064 28.7499 18.656 28.7337C18.2056 28.7176 17.7402 28.7095 17.2598 28.7095C16.7043 28.7095 16.2014 28.7176 15.7511 28.7337C15.3007 28.766 15.0154 28.7902 14.8954 28.8064L15.008 27.8381ZM24.5794 22.8517C24.5794 24.2073 24.8798 25.2965 25.4802 26.1195C26.0958 26.9425 26.9065 27.354 27.9122 27.354C28.3326 27.354 28.7454 27.2976 29.1508 27.1846C29.5561 27.0716 29.8939 26.9587 30.1641 26.8457C30.4343 26.7166 30.607 26.6359 30.682 26.6036L30.8172 26.652L31.0649 27.354C30.9599 27.4346 30.7122 27.6123 30.3217 27.8865C29.9465 28.1448 29.5036 28.3949 28.9931 28.6369C28.4828 28.879 28.0248 29 27.6195 29C26.6887 29 25.863 28.7821 25.1424 28.3464C24.4218 27.8946 23.8664 27.2652 23.476 26.4584C23.0857 25.6354 22.8905 24.6994 22.8905 23.6505C22.8905 22.5693 23.1157 21.5526 23.5661 20.6006C24.0315 19.6486 24.647 18.89 25.4126 18.3253C26.1783 17.7605 26.9966 17.4781 27.8672 17.4781C28.9631 17.4781 29.7963 17.7766 30.3668 18.3737C30.9373 18.9708 31.2225 19.8422 31.2225 20.9879C31.2225 21.2461 31.2 21.4962 31.1549 21.7383C31.125 21.9641 31.1024 22.1094 31.0874 22.174L30.7946 22.4644H24.5794V22.8517ZM28.7454 21.351C28.9706 21.3188 29.1208 21.2622 29.1958 21.1815C29.271 21.1009 29.3084 20.9395 29.3084 20.6974C29.3084 20.0519 29.1433 19.5598 28.813 19.2209C28.4977 18.882 28.0399 18.7126 27.4393 18.7126C26.7338 18.7126 26.1258 18.9708 25.6153 19.4871C25.1199 20.0035 24.8046 20.6974 24.6695 21.5688L28.7454 21.351ZM34.6734 22.8517C34.6734 24.2073 34.9736 25.2965 35.5741 26.1195C36.1896 26.9425 37.0003 27.354 38.0061 27.354C38.4265 27.354 38.8393 27.2976 39.2447 27.1846C39.65 27.0716 39.9878 26.9587 40.258 26.8457C40.5283 26.7166 40.7009 26.6359 40.776 26.6036L40.9111 26.652L41.1588 27.354C41.0536 27.4346 40.8059 27.6123 40.4157 27.8865C40.0403 28.1448 39.5975 28.3949 39.087 28.6369C38.5766 28.879 38.1187 29 37.7134 29C36.7827 29 35.9569 28.7821 35.2363 28.3464C34.5157 27.8946 33.9602 27.2652 33.5699 26.4584C33.1797 25.6354 32.9844 24.6994 32.9844 23.6505C32.9844 22.5693 33.2096 21.5526 33.66 20.6006C34.1254 19.6486 34.7409 18.89 35.5066 18.3253C36.2722 17.7605 37.0903 17.4781 37.9611 17.4781C39.0571 17.4781 39.8903 17.7766 40.4607 18.3737C41.0311 18.9708 41.3164 19.8422 41.3164 20.9879C41.3164 21.2461 41.2939 21.4962 41.2489 21.7383C41.2189 21.9641 41.1964 22.1094 41.1813 22.174L40.8886 22.4644H34.6734V22.8517ZM38.8393 21.351C39.0645 21.3188 39.2147 21.2622 39.2897 21.1815C39.3647 21.1009 39.4023 20.9395 39.4023 20.6974C39.4023 20.0519 39.2372 19.5598 38.9069 19.2209C38.5916 18.882 38.1338 18.7126 37.5333 18.7126C36.8277 18.7126 36.2197 18.9708 35.7092 19.4871C35.2138 20.0035 34.8985 20.6974 34.7634 21.5688L38.8393 21.351ZM49.5863 28.0076C50.0367 27.8785 50.3594 27.6929 50.5546 27.4508C50.7497 27.1926 50.8474 26.8537 50.8474 26.4342L50.9374 21.6415C50.9374 20.8346 50.7722 20.2133 50.442 19.7776C50.1268 19.3419 49.6688 19.1241 49.0684 19.1241C48.5879 19.1241 48.1001 19.2613 47.6047 19.5356C47.1092 19.7938 46.6738 20.0761 46.2986 20.3828C46.1634 23.7231 46.0959 25.708 46.0959 26.3374C46.0959 26.8377 46.1559 27.1926 46.276 27.4024C46.3961 27.5961 46.6062 27.6929 46.9066 27.6929C47.0717 27.6929 47.2293 27.6849 47.3795 27.6687C47.5295 27.6525 47.6346 27.6445 47.6947 27.6445L47.7398 27.7413L47.5371 28.7822C47.402 28.766 47.1392 28.7499 46.7489 28.7337C46.3585 28.7176 45.9383 28.7095 45.4879 28.7095C45.0975 28.7095 44.6621 28.7257 44.1818 28.7579C43.7164 28.8064 43.4086 28.8386 43.2585 28.8548L43.3711 27.8623C43.8064 27.7817 44.1142 27.6365 44.2944 27.4266C44.4745 27.2168 44.5646 26.8861 44.5646 26.4342V20.528C44.5646 19.9793 44.482 19.6002 44.3169 19.3903C44.1517 19.1644 43.8665 19.0514 43.4612 19.0514H43.2135L43.1459 18.9546L43.2135 18.1558C43.8589 18.0428 44.4971 17.9138 45.1276 17.7685C45.773 17.6071 46.186 17.5023 46.3661 17.4539L46.5012 17.6475C46.4711 17.7443 46.4261 17.9542 46.3661 18.2769C46.306 18.5835 46.2684 18.9062 46.2535 19.2451L46.2986 19.3177C48.01 18.0912 49.1134 17.4781 49.6088 17.4781C50.5546 17.4781 51.3052 17.7605 51.8607 18.3253C52.4161 18.89 52.6939 19.6486 52.6939 20.6006C52.6939 20.762 52.6489 21.5042 52.5588 22.8275C52.4386 24.5058 52.3786 25.6758 52.3786 26.3374C52.3786 26.8053 52.4386 27.1523 52.5588 27.3782C52.6788 27.5881 52.8815 27.6929 53.1668 27.6929C53.3319 27.6929 53.4895 27.6849 53.6397 27.6687C53.7897 27.6525 53.8949 27.6445 53.955 27.6445L54 27.7413L53.8199 28.7822C53.6847 28.766 53.4294 28.7499 53.0542 28.7337C52.6788 28.7176 52.266 28.7095 51.8157 28.7095C51.4253 28.7095 50.9749 28.7499 50.4645 28.8306C49.9691 28.9112 49.6463 28.9678 49.4962 29L49.5863 28.0076Z" fill="white"/>
</svg>
